{"asset":{"generator":"3D Builder","version":"2.0"},"scene":0,"scenes":[{"nodes":[0]}],"nodes":[{"mesh":0,"matrix":[0.0010976882185786963,0,0,0,0,-1.3085463268502906E-10,-0.0010976881021633744,0,0,0.0010976881021633744,-1.3085463268502906E-10,0,0.0018743182299658656,1.7053220290108584E-5,-5.5374475778080523E-6,1]}],"meshes":[{"primitives":[{"attributes":{"POSITION":0,"COLOR_0":1},"mode":4,"indices":2}]}],"accessors":[{"bufferView":0,"byteOffset":0,"count":502,"componentType":5126,"type":"VEC3","min":[-197.971923828125,-9.9820280075073242,-149.67961120605469],"max":[194.55690002441406,9.9758892059326172,149.64901733398437]},{"bufferView":1,"byteOffset":0,"count":502,"componentType":5121,"type":"VEC4","normalized":true},{"bufferView":2,"byteOffset":0,"count":3000,"componentType":5125,"type":"SCALAR"}],"bufferViews":[{"buffer":0,"byteOffset":0,"byteLength":6024,"byteStride":12,"target":34962},{"buffer":0,"byteOffset":6024,"byteLength":2008,"byteStride":4,"target":34962},{"buffer":0,"byteOffset":8032,"byteLength":12000,"target":34963}],"buffers":[{"byteLength":20032,"uri":"lod_1000_2.bin"}]}