{"asset":{"generator":"3D Builder","version":"2.0"},"scene":0,"scenes":[{"nodes":[0]}],"nodes":[{"mesh":0,"matrix":[1,0,0,0,0,-1.1920928955078125E-7,-0.99999988079071045,0,0,0.99999988079071045,-1.1920928955078125E-7,0,0.00068748375633731484,0.013174458406865597,-3.4632711276572081E-7,1]}],"meshes":[{"primitives":[{"attributes":{"POSITION":0,"COLOR_0":3},"mode":4,"indices":2}]}],"accessors":[{"bufferView":0,"byteOffset":0,"count":57039,"componentType":5126,"type":"VEC3","min":[-0.02031225711107254,-0.0009980490431189537,-0.013174461200833321],"max":[0.018937289714813232,0.00099735951516777277,0.016764882951974869]},{"bufferView":1,"byteOffset":0,"count":57039,"componentType":5121,"type":"VEC4","normalized":true},{"bufferView":2,"byteOffset":0,"count":342222,"componentType":5125,"type":"SCALAR"}],"bufferViews":[{"buffer":0,"byteOffset":0,"byteLength":684468,"byteStride":12,"target":34962},{"buffer":0,"byteOffset":684468,"byteLength":228156,"byteStride":4,"target":34962},{"buffer":0,"byteOffset":912624,"byteLength":1368888,"target":34963}],"buffers":[{"byteLength":2281512,"uri":"p_mesh_fish_test_new_edit.bin"}]}
